<?xml version="1.0" ?><svg data-name="Layer 3" id="Layer_3" viewBox="0 0 32 32" xmlns="http://www.w3.org/2000/svg"><defs><style>.cls-1{fill:none;stroke:#3c4044;stroke-linecap:round;stroke-linejoin:round;}</style></defs><title/><path class="cls-1" d="M26.65,12.87v.86L16.26,20.35,5.42,13.7v-.83H4.06V27.38H28V12.87Z"/><polygon class="cls-1" points="4.06 12.87 5.42 12.87 5.42 13.7 4.06 12.87"/><polygon class="cls-1" points="28 12.87 26.65 13.73 26.65 12.87 28 12.87"/><polygon class="cls-1" points="4.06 12.87 5.42 12.04 5.42 12.87 4.06 12.87"/><polygon class="cls-1" points="16.26 5.39 20.36 8 12 8 16.26 5.39"/><polygon class="cls-1" points="28 12.87 26.65 12.87 26.65 12.01 28 12.87"/><line class="cls-1" x1="4.06" x2="12.19" y1="27.38" y2="20.35"/><line class="cls-1" x1="28" x2="19.87" y1="27.38" y2="20.35"/><polygon class="cls-1" points="26.65 8 26.65 13.73 16.26 20.35 5.42 13.7 5.42 8 26.65 8"/></svg>